<?xml version="1.0" encoding="UTF-8"?>
<svg xmlns="http://www.w3.org/2000/svg" xmlns:xlink="http://www.w3.org/1999/xlink" width="854" height="480" viewBox="0 0 854 480">
<defs>
<g>
<g id="glyph-0-0">
<path d="M 3.453125 0.140625 C 2.867188 0.140625 2.375 0.0078125 1.96875 -0.25 C 1.5625 -0.507812 1.253906 -0.910156 1.046875 -1.453125 C 0.835938 -2.003906 0.734375 -2.707031 0.734375 -3.5625 C 0.734375 -4.414062 0.835938 -5.113281 1.046875 -5.65625 C 1.253906 -6.207031 1.5625 -6.613281 1.96875 -6.875 C 2.375 -7.144531 2.867188 -7.28125 3.453125 -7.28125 C 3.960938 -7.28125 4.378906 -7.171875 4.703125 -6.953125 C 5.035156 -6.734375 5.296875 -6.453125 5.484375 -6.109375 L 5.578125 -6.109375 C 5.546875 -6.328125 5.519531 -6.570312 5.5 -6.84375 C 5.488281 -7.113281 5.484375 -7.359375 5.484375 -7.578125 L 5.484375 -8.65625 C 5.484375 -8.925781 5.429688 -9.125 5.328125 -9.25 C 5.234375 -9.382812 5.101562 -9.46875 4.9375 -9.5 C 4.769531 -9.539062 4.585938 -9.5625 4.390625 -9.5625 L 4.296875 -9.5625 L 4.296875 -10.125 L 6.75 -10.125 L 6.75 -1.46875 C 6.75 -1.207031 6.796875 -1.007812 6.890625 -0.875 C 6.992188 -0.75 7.128906 -0.664062 7.296875 -0.625 C 7.460938 -0.582031 7.644531 -0.5625 7.84375 -0.5625 L 7.9375 -0.5625 L 7.9375 0 L 5.6875 0 L 5.546875 -1.203125 L 5.484375 -1.203125 C 5.296875 -0.796875 5.039062 -0.46875 4.71875 -0.21875 C 4.394531 0.0195312 3.972656 0.140625 3.453125 0.140625 Z M 3.671875 -0.71875 C 4.367188 -0.71875 4.84375 -0.953125 5.09375 -1.421875 C 5.351562 -1.890625 5.484375 -2.601562 5.484375 -3.5625 C 5.484375 -4.476562 5.351562 -5.179688 5.09375 -5.671875 C 4.84375 -6.171875 4.367188 -6.421875 3.671875 -6.421875 C 3.273438 -6.421875 2.957031 -6.304688 2.71875 -6.078125 C 2.476562 -5.859375 2.300781 -5.535156 2.1875 -5.109375 C 2.082031 -4.691406 2.03125 -4.171875 2.03125 -3.546875 C 2.03125 -2.597656 2.15625 -1.890625 2.40625 -1.421875 C 2.65625 -0.953125 3.078125 -0.71875 3.671875 -0.71875 Z "/>
</g>
<g id="glyph-0-1">
<path d="M 0.3125 0 L 0.3125 -0.5625 L 0.484375 -0.5625 C 0.671875 -0.5625 0.847656 -0.582031 1.015625 -0.625 C 1.179688 -0.664062 1.316406 -0.75 1.421875 -0.875 C 1.523438 -1 1.578125 -1.191406 1.578125 -1.453125 L 1.578125 -5.671875 C 1.578125 -5.941406 1.523438 -6.140625 1.421875 -6.265625 C 1.316406 -6.398438 1.179688 -6.484375 1.015625 -6.515625 C 0.847656 -6.554688 0.671875 -6.578125 0.484375 -6.578125 L 0.4375 -6.578125 L 0.4375 -7.140625 L 2.828125 -7.140625 L 2.828125 -1.515625 C 2.828125 -1.242188 2.875 -1.035156 2.96875 -0.890625 C 3.070312 -0.753906 3.207031 -0.664062 3.375 -0.625 C 3.539062 -0.582031 3.722656 -0.5625 3.921875 -0.5625 L 4.09375 -0.5625 L 4.09375 0 Z M 2.140625 -8.484375 C 1.929688 -8.484375 1.753906 -8.539062 1.609375 -8.65625 C 1.460938 -8.78125 1.390625 -8.992188 1.390625 -9.296875 C 1.390625 -9.609375 1.460938 -9.820312 1.609375 -9.9375 C 1.753906 -10.0625 1.929688 -10.125 2.140625 -10.125 C 2.347656 -10.125 2.523438 -10.0625 2.671875 -9.9375 C 2.828125 -9.820312 2.90625 -9.609375 2.90625 -9.296875 C 2.90625 -8.992188 2.828125 -8.78125 2.671875 -8.65625 C 2.523438 -8.539062 2.347656 -8.484375 2.140625 -8.484375 Z "/>
</g>
</g>
</defs>
<g fill="rgb(100%, 100%, 100%)" fill-opacity="1">
<use xlink:href="#glyph-0-0" x="30" y="34.25293"/>
<use xlink:href="#glyph-0-1" x="38" y="34.25293"/>
</g>
</svg>
